<svg width="18" height="14" viewBox="0 0 18 14" fill="none" xmlns="http://www.w3.org/2000/svg">
<path d="M10.1123 13.9999C13.8498 14.0182 17.2613 10.8791 17.2613 7.06053C17.2613 2.885 13.8498 -0.00155799 10.1123 6.3088e-07H6.89552C3.11341 -0.00155799 0 2.88578 0 7.06053C0 10.8799 3.11341 14.0182 6.89552 13.9999H10.1123Z" fill="#0079BE"/>
<path d="M6.91092 0.578543C3.45451 0.579712 0.654132 3.44756 0.65298 6.98718C0.654132 10.5264 3.45451 13.3943 6.91092 13.3954C10.3677 13.3943 13.1692 10.5264 13.1696 6.98718C13.1692 3.44756 10.3681 0.579712 6.91092 0.578543ZM2.94445 6.98718C2.94372 6.16879 3.18637 5.36922 3.64069 4.69295C4.095 4.01669 4.73985 3.49519 5.49095 3.19663V10.7773C4.73979 10.479 4.09486 9.9576 3.64053 9.28137C3.18619 8.60514 2.94359 7.80555 2.94445 6.98718ZM8.33051 10.7789V3.19624C9.08217 3.49438 9.72757 4.01583 10.1822 4.69232C10.6369 5.36881 10.8796 6.16881 10.8785 6.98757C10.8794 7.8063 10.6366 8.60623 10.182 9.28269C9.72739 9.95915 9.08208 10.4806 8.33051 10.7789Z" fill="white"/>
<path d="M10.1123 13.9999C13.8498 14.0182 17.2613 10.8791 17.2613 7.06053C17.2613 2.885 13.8498 -0.00155799 10.1123 6.3088e-07H6.89552C3.11341 -0.00155799 0 2.88578 0 7.06053C0 10.8799 3.11341 14.0182 6.89552 13.9999H10.1123Z" fill="#0079BE"/>
<path d="M6.91092 0.578543C3.45451 0.579712 0.654132 3.44756 0.65298 6.98718C0.654132 10.5264 3.45451 13.3943 6.91092 13.3954C10.3677 13.3943 13.1692 10.5264 13.1696 6.98718C13.1692 3.44756 10.3681 0.579712 6.91092 0.578543ZM2.94445 6.98718C2.94372 6.16879 3.18637 5.36922 3.64069 4.69295C4.095 4.01669 4.73985 3.49519 5.49095 3.19663V10.7773C4.73979 10.479 4.09486 9.9576 3.64053 9.28137C3.18619 8.60514 2.94359 7.80555 2.94445 6.98718ZM8.33051 10.7789V3.19624C9.08217 3.49438 9.72757 4.01583 10.1822 4.69232C10.6369 5.36881 10.8796 6.16881 10.8785 6.98757C10.8794 7.8063 10.6366 8.60623 10.182 9.28269C9.72739 9.95915 9.08208 10.4806 8.33051 10.7789Z" fill="white"/>
</svg>
