<svg width="15" height="15" viewBox="0 0 15 15" fill="none" xmlns="http://www.w3.org/2000/svg">
<path d="M7.49655 3.00552H14.47" stroke="#353522" stroke-miterlimit="10" stroke-linecap="round" stroke-linejoin="round"/>
<path d="M9.04466 0.523009H12.9219C14.1632 0.523009 14.47 0.829842 14.47 2.05717V4.92326C14.47 6.15059 14.1632 6.45742 12.9219 6.45742H9.04466C7.80339 6.45742 7.49655 6.15059 7.49655 4.92326V2.05717C7.49655 0.829842 7.80339 0.523009 9.04466 0.523009Z" stroke="#353522" stroke-linecap="round" stroke-linejoin="round"/>
<path d="M0.523009 11.0251H7.49647" stroke="#353522" stroke-miterlimit="10" stroke-linecap="round" stroke-linejoin="round"/>
<path d="M2.07112 8.54257H5.94836C7.18963 8.54257 7.49647 8.8494 7.49647 10.0767V12.9428C7.49647 14.1702 7.18963 14.477 5.94836 14.477H2.07112C0.829842 14.477 0.523009 14.1702 0.523009 12.9428V10.0767C0.523009 8.8494 0.829842 8.54257 2.07112 8.54257Z" stroke="#353522" stroke-linecap="round" stroke-linejoin="round"/>
<path d="M14.4698 9.58859C14.4698 12.2873 12.2871 14.47 9.58833 14.47L10.3205 13.2497" stroke="#353522" stroke-linecap="round" stroke-linejoin="round"/>
<path d="M0.523009 5.40443C0.523009 2.7057 2.7057 0.523009 5.40443 0.523009L4.67223 1.74336" stroke="#353522" stroke-linecap="round" stroke-linejoin="round"/>
</svg>
