<svg width="31" height="32" viewBox="0 0 31 32" fill="none" xmlns="http://www.w3.org/2000/svg">
<path d="M1.81027 14.8115V21.6534C1.81027 28.4953 4.55313 31.2382 11.395 31.2382H19.6084C26.4503 31.2382 29.1931 28.4953 29.1931 21.6534V14.8115" stroke="#3F3F32" stroke-width="1.5" stroke-linecap="round" stroke-linejoin="round"/>
<path d="M15.5094 16C18.298 16 20.3551 13.7295 20.0808 10.941L19.0751 0.761905H11.9589L10.938 10.941C10.6637 13.7295 12.7208 16 15.5094 16Z" stroke="#3F3F32" stroke-width="1.5" stroke-linecap="round" stroke-linejoin="round"/>
<path d="M25.1246 16C28.2027 16 30.4579 13.501 30.1532 10.4381L29.7265 6.24762C29.1779 2.28571 27.6541 0.761905 23.6618 0.761905H19.0141L20.0808 11.4438C20.3399 13.9581 22.6103 16 25.1246 16Z" stroke="#3F3F32" stroke-width="1.5" stroke-linecap="round" stroke-linejoin="round"/>
<path d="M5.81807 16C8.33235 16 10.6028 13.9581 10.8466 11.4438L11.1819 8.07619L11.9133 0.761905H7.26569C3.2733 0.761905 1.74949 2.28571 1.20092 6.24762L0.789494 10.4381C0.484732 13.501 2.73997 16 5.81807 16Z" stroke="#3F3F32" stroke-width="1.5" stroke-linecap="round" stroke-linejoin="round"/>
<path d="M15.5094 23.619C12.9647 23.619 11.6999 24.8838 11.6999 27.4286V31.2381H19.3189V27.4286C19.3189 24.8838 18.0542 23.619 15.5094 23.619Z" stroke="#3F3F32" stroke-width="1.5" stroke-linecap="round" stroke-linejoin="round"/>
</svg>
