<svg width="16" height="16" viewBox="0 0 16 16" fill="none" xmlns="http://www.w3.org/2000/svg">
<path d="M8 3.70654H14.6667" stroke="#353522" stroke-miterlimit="10" stroke-linecap="round" stroke-linejoin="round"/>
<path d="M9.48 1.33325H13.1867C14.3733 1.33325 14.6667 1.62659 14.6667 2.79992V5.53992C14.6667 6.71325 14.3733 7.00658 13.1867 7.00658H9.48C8.29333 7.00658 8 6.71325 8 5.53992V2.79992C8 1.62659 8.29333 1.33325 9.48 1.33325Z" stroke="#353522" stroke-linecap="round" stroke-linejoin="round"/>
<path d="M1.33325 11.3733H7.99992" stroke="#353522" stroke-miterlimit="10" stroke-linecap="round" stroke-linejoin="round"/>
<path d="M2.81325 9H6.51992C7.70658 9 7.99992 9.29333 7.99992 10.4667V13.2067C7.99992 14.38 7.70658 14.6733 6.51992 14.6733H2.81325C1.62659 14.6733 1.33325 14.38 1.33325 13.2067V10.4667C1.33325 9.29333 1.62659 9 2.81325 9Z" stroke="#353522" stroke-linecap="round" stroke-linejoin="round"/>
<path d="M14.6664 10C14.6664 12.58 12.5798 14.6667 9.99976 14.6667L10.6997 13.5" stroke="#353522" stroke-linecap="round" stroke-linejoin="round"/>
<path d="M1.33325 5.99992C1.33325 3.41992 3.41992 1.33325 5.99992 1.33325L5.29993 2.49992" stroke="#353522" stroke-linecap="round" stroke-linejoin="round"/>
</svg>
