<svg width="36" height="36" viewBox="0 0 36 36" fill="none" xmlns="http://www.w3.org/2000/svg">
<path d="M13.5 33H22.5C30 33 33 30 33 22.5V13.5C33 6 30 3 22.5 3H13.5C6 3 3 6 3 13.5V22.5C3 30 6 33 13.5 33Z" stroke="#3F3F32" stroke-width="1.5" stroke-linecap="round" stroke-linejoin="round"/>
<path d="M10.05 13.8901L18 18.4951L25.89 13.9201" stroke="#3F3F32" stroke-width="1.5" stroke-linecap="round" stroke-linejoin="round"/>
<path d="M18 26.6552V18.4802" stroke="#3F3F32" stroke-width="1.5" stroke-linecap="round" stroke-linejoin="round"/>
<path d="M16.14 9.43503L11.34 12.105C10.26 12.705 9.35999 14.22 9.35999 15.465V20.55C9.35999 21.795 10.245 23.31 11.34 23.91L16.14 26.58C17.16 27.15 18.84 27.15 19.875 26.58L24.675 23.91C25.755 23.31 26.655 21.795 26.655 20.55V15.45C26.655 14.205 25.77 12.69 24.675 12.09L19.875 9.42003C18.84 8.85003 17.16 8.85003 16.14 9.43503Z" stroke="#3F3F32" stroke-width="1.5" stroke-linecap="round" stroke-linejoin="round"/>
</svg>
