<svg width="15" height="15" viewBox="0 0 15 15" fill="none" xmlns="http://www.w3.org/2000/svg">
<path d="M9.83342 1.16694V7.83328C9.83342 8.56657 9.23345 9.16654 8.50015 9.16654H1.16718V4.91342C1.65382 5.49339 2.40047 5.85337 3.2271 5.83337C3.9004 5.82004 4.50702 5.56006 4.96033 5.12674C5.16699 4.95342 5.34032 4.73342 5.47365 4.49343C5.71364 4.08679 5.84695 3.6068 5.83362 3.10682C5.81362 2.32686 5.46698 1.64025 4.92701 1.16694H9.83342Z" stroke="#353522" stroke-linecap="round" stroke-linejoin="round"/>
<path d="M14.4999 9.16654V11.1664C14.4999 12.2731 13.6066 13.1663 12.5 13.1663H11.8333C11.8333 12.4331 11.2334 11.8331 10.5001 11.8331C9.76676 11.8331 9.16679 12.4331 9.16679 13.1663H6.50025C6.50025 12.4331 5.90028 11.8331 5.16698 11.8331C4.43369 11.8331 3.83372 12.4331 3.83372 13.1663H3.16708C2.06047 13.1663 1.16718 12.2731 1.16718 11.1664V9.16654H8.50015C9.23345 9.16654 9.83342 8.56657 9.83342 7.83328V3.16684H11.06C11.54 3.16684 11.98 3.42683 12.22 3.84014L13.3599 5.83337H12.5C12.1333 5.83337 11.8333 6.13336 11.8333 6.50001V8.49991C11.8333 8.86656 12.1333 9.16654 12.5 9.16654H14.4999Z" stroke="#353522" stroke-linecap="round" stroke-linejoin="round"/>
<path d="M5.16707 14.4997C5.90341 14.4997 6.50033 13.9028 6.50033 13.1664C6.50033 12.4301 5.90341 11.8332 5.16707 11.8332C4.43072 11.8332 3.8338 12.4301 3.8338 13.1664C3.8338 13.9028 4.43072 14.4997 5.16707 14.4997Z" stroke="#353522" stroke-linecap="round" stroke-linejoin="round"/>
<path d="M10.5001 14.4997C11.2364 14.4997 11.8333 13.9028 11.8333 13.1664C11.8333 12.4301 11.2364 11.8332 10.5001 11.8332C9.76371 11.8332 9.16679 12.4301 9.16679 13.1664C9.16679 13.9028 9.76371 14.4997 10.5001 14.4997Z" stroke="#353522" stroke-linecap="round" stroke-linejoin="round"/>
<path d="M14.4999 7.83336V9.16663H12.5C12.1334 9.16663 11.8334 8.86664 11.8334 8.49999V6.50009C11.8334 6.13344 12.1334 5.83346 12.5 5.83346H13.36L14.4999 7.83336Z" stroke="#353522" stroke-linecap="round" stroke-linejoin="round"/>
<path d="M5.83381 3.107C5.84715 3.60697 5.71383 4.08696 5.47385 4.49361C5.34052 4.7336 5.16718 4.95359 4.96053 5.12692C4.50721 5.56023 3.90059 5.82022 3.22729 5.83355C2.40067 5.85355 1.65402 5.49356 1.16738 4.91359C1.07405 4.8136 0.994054 4.70028 0.920724 4.58695C0.660736 4.19363 0.514074 3.727 0.500741 3.22703C0.480742 2.38707 0.854052 1.62042 1.45402 1.12044C1.90733 0.747127 2.48063 0.51381 3.10726 0.500477C3.80723 0.487144 4.44722 0.740465 4.9272 1.16711C5.46718 1.64042 5.81382 2.32704 5.83381 3.107Z" stroke="#353522" stroke-miterlimit="10" stroke-linecap="round" stroke-linejoin="round"/>
<path d="M2.12758 3.18702L2.80089 3.82696L4.19413 2.48035" stroke="#353522" stroke-linecap="round" stroke-linejoin="round"/>
</svg>
