<svg width="132" height="21" viewBox="0 0 132 21" fill="none" xmlns="http://www.w3.org/2000/svg">
<path d="M10 15.6213C11.775 15.621 13.4988 15.1053 14.897 14.1564L19.293 17.9715L20.707 16.7443L16.311 12.9292C17.405 11.7157 17.9996 10.2193 18 8.67845C18 4.85034 14.411 1.7356 10 1.7356C5.589 1.7356 2 4.85034 2 8.67845C2 12.5066 5.589 15.6213 10 15.6213ZM10 3.47131C13.309 3.47131 16 5.80671 16 8.67845C16 11.5502 13.309 13.8856 10 13.8856C6.691 13.8856 4 11.5502 4 8.67845C4 5.80671 6.691 3.47131 10 3.47131Z" fill="#000201"/>
<path d="M66 1.7356C65.0111 1.7356 64.0444 1.99009 63.2221 2.4669C62.3999 2.9437 61.759 3.62141 61.3806 4.41431C61.0022 5.20721 60.9031 6.0797 61.0961 6.92143C61.289 7.76318 61.7652 8.53636 62.4645 9.14322C63.1637 9.75008 64.0546 10.1634 65.0246 10.3308C65.9945 10.4983 66.9998 10.4123 67.9134 10.0839C68.827 9.75543 69.6079 9.19925 70.1573 8.48566C70.7068 7.77207 71 6.93311 71 6.07488C71 4.92403 70.4732 3.82032 69.5355 3.00655C68.5979 2.19277 67.3261 1.7356 66 1.7356ZM66 8.67845C65.4067 8.67845 64.8266 8.52575 64.3333 8.23967C63.8399 7.95358 63.4554 7.54697 63.2284 7.07122C63.0013 6.59548 62.9419 6.07199 63.0576 5.56695C63.1734 5.06191 63.4591 4.598 63.8787 4.23388C64.2982 3.86976 64.8328 3.6218 65.4147 3.52133C65.9967 3.42088 66.5999 3.47244 67.1481 3.66949C67.6962 3.86655 68.1648 4.20026 68.4944 4.62842C68.8241 5.05657 69 5.55995 69 6.07488C69 6.76539 68.6839 7.42762 68.1213 7.91588C67.5587 8.40415 66.7957 8.67845 66 8.67845ZM75 18.2249V17.357C75 15.7458 74.2625 14.2006 72.9497 13.0614C71.637 11.9221 69.8565 11.282 68 11.282H64C62.1435 11.282 60.363 11.9221 59.0503 13.0614C57.7375 14.2006 57 15.7458 57 17.357V18.2249H59V17.357C59 16.2062 59.5268 15.1024 60.4645 14.2887C61.4022 13.4749 62.6739 13.0177 64 13.0177H68C69.3261 13.0177 70.5979 13.4749 71.5355 14.2887C72.4732 15.1024 73 16.2062 73 17.357V18.2249H75Z" fill="#000201"/>
<path d="M129.822 6.44899C129.73 6.33364 129.607 6.23934 129.464 6.17419C129.321 6.10905 129.162 6.075 129 6.07494H115.333L114.179 3.67098C114.028 3.35441 113.771 3.08396 113.443 2.89391C113.114 2.70387 112.728 2.6028 112.333 2.60352H110V4.33923H112.333L117.077 14.2198C117.153 14.3779 117.281 14.5129 117.445 14.6079C117.61 14.7028 117.803 14.7535 118 14.7535H126C126.417 14.7535 126.79 14.5287 126.937 14.1911L129.937 7.24829C129.994 7.11692 130.013 6.97557 129.993 6.83636C129.973 6.69715 129.914 6.56423 129.822 6.44899ZM125.307 13.0178H118.667L116.167 7.81066H127.557L125.307 13.0178Z" fill="#000201"/>
<path d="M118.5 18.2249C119.328 18.2249 120 17.6421 120 16.9231C120 16.2042 119.328 15.6213 118.5 15.6213C117.672 15.6213 117 16.2042 117 16.9231C117 17.6421 117.672 18.2249 118.5 18.2249Z" fill="#000201"/>
<path d="M125.5 18.2249C126.328 18.2249 127 17.6421 127 16.9231C127 16.2042 126.328 15.6213 125.5 15.6213C124.672 15.6213 124 16.2042 124 16.9231C124 17.6421 124.672 18.2249 125.5 18.2249Z" fill="#000201"/>
<ellipse cx="128" cy="6.0747" rx="4" ry="3.47143" fill="#FF1616"/>
</svg>
