<svg width="22" height="22" viewBox="0 0 22 22" fill="none" xmlns="http://www.w3.org/2000/svg">
<path d="M8.24992 20.1666H13.7499C18.3333 20.1666 20.1666 18.3333 20.1666 13.7499V8.24992C20.1666 3.66659 18.3333 1.83325 13.7499 1.83325H8.24992C3.66659 1.83325 1.83325 3.66659 1.83325 8.24992V13.7499C1.83325 18.3333 3.66659 20.1666 8.24992 20.1666Z" stroke="#92928A" stroke-width="1.375" stroke-linecap="round" stroke-linejoin="round"/>
<path d="M11.0001 14.2084C12.772 14.2084 14.2084 12.772 14.2084 11.0001C14.2084 9.22817 12.772 7.79175 11.0001 7.79175C9.22817 7.79175 7.79175 9.22817 7.79175 11.0001C7.79175 12.772 9.22817 14.2084 11.0001 14.2084Z" stroke="#92928A" stroke-width="1.375" stroke-linecap="round" stroke-linejoin="round"/>
<path d="M16.1664 6.41659H16.177" stroke="#92928A" stroke-width="1.83333" stroke-linecap="round" stroke-linejoin="round"/>
</svg>
