<svg width="23" height="10" viewBox="0 0 23 10" fill="none" xmlns="http://www.w3.org/2000/svg">
<path fill-rule="evenodd" clip-rule="evenodd" d="M10.6076 7.51544V4.69589H12.0421C12.6299 4.69589 13.126 4.49608 13.5304 4.10201L13.6275 4.0021C14.3663 3.18621 14.3178 1.91519 13.5304 1.16035C13.1368 0.760728 12.5975 0.544266 12.0421 0.555367H9.73943V7.51544H10.6076ZM10.6078 3.84116V1.41012H12.064C12.3769 1.41012 12.6735 1.53223 12.8946 1.75424C13.3639 2.22047 13.3746 2.99751 12.9216 3.48039C12.7005 3.71905 12.3876 3.85226 12.064 3.84116H10.6078ZM17.6774 3.12514C17.3053 2.77548 16.7984 2.59787 16.1567 2.59787C15.3316 2.59787 14.7115 2.90868 14.3016 3.52477L15.0674 4.01874C15.3478 3.59692 15.7307 3.38601 16.216 3.38601C16.5234 3.38601 16.82 3.50257 17.0519 3.71348C17.2783 3.91329 17.4078 4.2019 17.4078 4.50717V4.71253C17.0734 4.52382 16.6528 4.42392 16.1351 4.42392C15.5311 4.42392 15.0458 4.56822 14.6845 4.86239C14.3232 5.15656 14.1398 5.54508 14.1398 6.03905C14.1291 6.48863 14.3178 6.916 14.6521 7.20462C14.9919 7.51543 15.4233 7.67084 15.9302 7.67084C16.5288 7.67084 17.0033 7.39888 17.3646 6.85495H17.4024V7.51543H18.2328V4.57932C18.2328 3.96324 18.0495 3.47481 17.6774 3.12514ZM15.3209 6.63843C15.1429 6.50522 15.035 6.28876 15.035 6.05564C15.035 5.79478 15.1537 5.57832 15.3856 5.40626C15.6229 5.2342 15.9196 5.1454 16.2701 5.1454C16.7556 5.13984 17.1331 5.25085 17.4028 5.47286C17.4028 5.85028 17.2572 6.17775 16.9713 6.45527C16.7124 6.72168 16.3618 6.87154 15.9951 6.87154C15.7524 6.87709 15.5151 6.79383 15.3209 6.63843ZM20.0988 9.60792L23 2.7533H22.0563L20.7135 6.17228H20.6974L19.3222 2.7533H18.3785L20.2821 7.21019L19.2036 9.60792H20.0988Z" fill="#3C4043"/>
<path d="M7.61028 4.08532C7.61028 3.81335 7.58871 3.54139 7.54557 3.27498H3.88398V4.81241H5.98171C5.89543 5.30639 5.61501 5.75041 5.20517 6.02792V7.02698H6.45626C7.18966 6.33319 7.61028 5.30639 7.61028 4.08532Z" fill="#4285F4"/>
<path d="M3.88411 7.99276C4.93028 7.99276 5.81467 7.63754 6.45639 7.02701L5.2053 6.02795C4.85478 6.27217 4.40719 6.41092 3.88411 6.41092C2.87029 6.41092 2.01287 5.70603 1.70549 4.76248H0.41665V5.79484C1.07455 7.14356 2.41731 7.99276 3.88411 7.99276Z" fill="#34A853"/>
<path d="M1.70569 4.76231C1.54388 4.26834 1.54388 3.72996 1.70569 3.23043V2.20363H0.416647C-0.138882 3.33034 -0.138882 4.66241 0.416647 5.78912L1.70569 4.76231Z" fill="#FBBC04"/>
<path d="M3.88411 1.58208C4.43955 1.57098 4.97342 1.78744 5.37247 2.18151L6.48335 1.03815C5.77692 0.361011 4.84939 -0.010859 3.88411 0.000241555C2.41731 0.000241555 1.07455 0.854988 0.41665 2.20371L1.70549 3.23607C2.01287 2.28697 2.87029 1.58208 3.88411 1.58208Z" fill="#EA4335"/>
</svg>
