<svg width="16" height="16" viewBox="0 0 16 16" fill="none" xmlns="http://www.w3.org/2000/svg">
<path d="M9.99992 1.33325V7.99992C9.99992 8.73325 9.39992 9.33325 8.66659 9.33325H1.33325V5.07992C1.81992 5.65992 2.5666 6.01992 3.39327 5.99992C4.0666 5.98659 4.67325 5.72659 5.12659 5.29325C5.33325 5.11992 5.5066 4.89991 5.63993 4.65991C5.87993 4.25325 6.01325 3.77323 5.99992 3.27323C5.97992 2.49323 5.63326 1.80659 5.09326 1.33325H9.99992Z" stroke="#353522" stroke-linecap="round" stroke-linejoin="round"/>
<path d="M14.6666 9.33325V11.3333C14.6666 12.4399 13.7733 13.3333 12.6666 13.3333H11.9999C11.9999 12.5999 11.3999 11.9999 10.6666 11.9999C9.93325 11.9999 9.33325 12.5999 9.33325 13.3333H6.66659C6.66659 12.5999 6.06659 11.9999 5.33325 11.9999C4.59992 11.9999 3.99992 12.5999 3.99992 13.3333H3.33325C2.22659 13.3333 1.33325 12.4399 1.33325 11.3333V9.33325H8.66659C9.39992 9.33325 9.99992 8.73325 9.99992 7.99992V3.33325H11.2266C11.7066 3.33325 12.1466 3.59326 12.3866 4.00659L13.5266 5.99992H12.6666C12.2999 5.99992 11.9999 6.29992 11.9999 6.66659V8.66659C11.9999 9.03325 12.2999 9.33325 12.6666 9.33325H14.6666Z" stroke="#353522" stroke-linecap="round" stroke-linejoin="round"/>
<path d="M5.33333 14.6667C6.06971 14.6667 6.66667 14.0697 6.66667 13.3333C6.66667 12.597 6.06971 12 5.33333 12C4.59695 12 4 12.597 4 13.3333C4 14.0697 4.59695 14.6667 5.33333 14.6667Z" stroke="#353522" stroke-linecap="round" stroke-linejoin="round"/>
<path d="M10.6666 14.6667C11.403 14.6667 11.9999 14.0697 11.9999 13.3333C11.9999 12.597 11.403 12 10.6666 12C9.93021 12 9.33325 12.597 9.33325 13.3333C9.33325 14.0697 9.93021 14.6667 10.6666 14.6667Z" stroke="#353522" stroke-linecap="round" stroke-linejoin="round"/>
<path d="M14.6667 8V9.33333H12.6667C12.3 9.33333 12 9.03333 12 8.66667V6.66667C12 6.3 12.3 6 12.6667 6H13.5267L14.6667 8Z" stroke="#353522" stroke-linecap="round" stroke-linejoin="round"/>
<path d="M6.00011 3.27341C6.01345 3.77341 5.88013 4.25342 5.64013 4.66009C5.5068 4.90009 5.33345 5.1201 5.12678 5.29343C4.67345 5.72676 4.0668 5.98676 3.39347 6.00009C2.5668 6.02009 1.82011 5.66009 1.33345 5.08009C1.24011 4.98009 1.16012 4.86676 1.08678 4.75343C0.826784 4.3601 0.680114 3.89345 0.666781 3.39345C0.646781 2.55345 1.02011 1.78676 1.62011 1.28676C2.07344 0.913423 2.64676 0.680095 3.27343 0.666761C3.97343 0.653428 4.61346 0.906761 5.09346 1.33343C5.63346 1.80676 5.98011 2.49341 6.00011 3.27341Z" stroke="#353522" stroke-miterlimit="10" stroke-linecap="round" stroke-linejoin="round"/>
<path d="M2.2937 3.35343L2.96704 3.99341L4.36035 2.64673" stroke="#353522" stroke-linecap="round" stroke-linejoin="round"/>
</svg>
