<svg width="20" height="20" viewBox="0 0 20 20" fill="none" xmlns="http://www.w3.org/2000/svg">
<path d="M11.8487 7.50422V10.1849H14.2521C14.4369 10.1849 14.5294 10.3697 14.5294 10.5546L14.1596 12.3109C14.1596 12.4033 13.9748 12.4958 13.8823 12.4958H11.8487V19.2436H9.07564V12.5882H7.50422C7.31935 12.5882 7.22691 12.4958 7.22691 12.3109V10.5546C7.22691 10.3697 7.31935 10.2773 7.50422 10.2773H9.07564V7.22691C9.07564 5.6555 10.2773 4.45383 11.8487 4.45383H14.3445C14.5294 4.45383 14.6218 4.54626 14.6218 4.73114V6.9496C14.6218 7.13448 14.5294 7.22691 14.3445 7.22691H12.126C11.9412 7.22691 11.8487 7.31935 11.8487 7.50422Z" stroke="#92928A" stroke-width="1.5" stroke-miterlimit="10" stroke-linecap="round"/>
<path d="M12.773 19.2435H7.22683C2.60502 19.2435 0.756296 17.3948 0.756296 12.773V7.22683C0.756296 2.60502 2.60502 0.756296 7.22683 0.756296H12.773C17.3948 0.756296 19.2435 2.60502 19.2435 7.22683V12.773C19.2435 17.3948 17.3948 19.2435 12.773 19.2435Z" stroke="#92928A" stroke-width="1.5" stroke-linecap="round" stroke-linejoin="round"/>
</svg>
