<svg width="32" height="32" viewBox="0 0 32 32" fill="none" xmlns="http://www.w3.org/2000/svg">
<path d="M16 19.0476H17.5238C19.2 19.0476 20.5714 17.6762 20.5714 16V0.761905H6.85714C4.57143 0.761905 2.57525 2.02665 1.53906 3.8857" stroke="#3F3F32" stroke-width="1.5" stroke-linecap="round" stroke-linejoin="round"/>
<path d="M0.761905 23.619C0.761905 26.1486 2.80381 28.1905 5.33333 28.1905H6.85714C6.85714 26.5143 8.22857 25.1429 9.90476 25.1429C11.581 25.1429 12.9524 26.5143 12.9524 28.1905H19.0476C19.0476 26.5143 20.419 25.1429 22.0952 25.1429C23.7714 25.1429 25.1429 26.5143 25.1429 28.1905H26.6667C29.1962 28.1905 31.2381 26.1486 31.2381 23.619V19.0476H26.6667C25.8286 19.0476 25.1429 18.3619 25.1429 17.5238V12.9524C25.1429 12.1143 25.8286 11.4286 26.6667 11.4286H28.6323L26.0267 6.8724C25.4781 5.92763 24.4724 5.33333 23.3753 5.33333H20.5714V16C20.5714 17.6762 19.2 19.0476 17.5238 19.0476H16" stroke="#3F3F32" stroke-width="1.5" stroke-linecap="round" stroke-linejoin="round"/>
<path d="M9.90476 31.2381C11.5879 31.2381 12.9524 29.8736 12.9524 28.1905C12.9524 26.5073 11.5879 25.1429 9.90476 25.1429C8.22161 25.1429 6.85714 26.5073 6.85714 28.1905C6.85714 29.8736 8.22161 31.2381 9.90476 31.2381Z" stroke="#3F3F32" stroke-width="1.5" stroke-linecap="round" stroke-linejoin="round"/>
<path d="M22.0952 31.2381C23.7784 31.2381 25.1429 29.8736 25.1429 28.1905C25.1429 26.5073 23.7784 25.1429 22.0952 25.1429C20.4121 25.1429 19.0476 26.5073 19.0476 28.1905C19.0476 29.8736 20.4121 31.2381 22.0952 31.2381Z" stroke="#3F3F32" stroke-width="1.5" stroke-linecap="round" stroke-linejoin="round"/>
<path d="M31.2381 16V19.0476H26.6667C25.8286 19.0476 25.1429 18.3619 25.1429 17.5238V12.9524C25.1429 12.1143 25.8286 11.4286 26.6667 11.4286H28.6323L31.2381 16Z" stroke="#3F3F32" stroke-width="1.5" stroke-linecap="round" stroke-linejoin="round"/>
<path d="M0.761905 9.90476H9.90476" stroke="#3F3F32" stroke-width="1.5" stroke-linecap="round" stroke-linejoin="round"/>
<path d="M0.761905 14.4762H6.85714" stroke="#3F3F32" stroke-width="1.5" stroke-linecap="round" stroke-linejoin="round"/>
<path d="M0.761905 19.0476H3.80952" stroke="#3F3F32" stroke-width="1.5" stroke-linecap="round" stroke-linejoin="round"/>
</svg>
