<svg width="20" height="22" viewBox="0 0 20 22" fill="none" xmlns="http://www.w3.org/2000/svg">
<path d="M19.186 4.83998C15.7786 4.50231 12.3507 4.32835 8.93302 4.32835C6.90698 4.32835 4.88093 4.43068 2.85488 4.63533L0.767442 4.83998" stroke="#3F3F32" stroke-width="1.5" stroke-linecap="round" stroke-linejoin="round"/>
<path d="M6.39535 3.80651L6.62047 2.46605C6.78419 1.49395 6.90698 0.767442 8.63628 0.767442H11.3172C13.0465 0.767442 13.1795 1.53488 13.333 2.47628L13.5581 3.80651" stroke="#3F3F32" stroke-width="1.5" stroke-linecap="round" stroke-linejoin="round"/>
<path d="M16.9859 8.07338L16.3208 18.3776C16.2083 19.9841 16.1162 21.2324 13.2613 21.2324H6.69199C3.83711 21.2324 3.74502 19.9841 3.63246 18.3776L2.96734 8.07338" stroke="#3F3F32" stroke-width="1.5" stroke-linecap="round" stroke-linejoin="round"/>
<path d="M8.26799 15.6047H11.6754" stroke="#3F3F32" stroke-width="1.5" stroke-linecap="round" stroke-linejoin="round"/>
<path d="M7.4186 11.5116H12.5349" stroke="#3F3F32" stroke-width="1.5" stroke-linecap="round" stroke-linejoin="round"/>
</svg>
