<svg width="20" height="20" viewBox="0 0 20 20" fill="none" xmlns="http://www.w3.org/2000/svg">
<path d="M7.20933 19.3024H12.7908C17.4419 19.3024 19.3024 17.4419 19.3024 12.7908V7.20933C19.3024 2.55815 17.4419 0.697677 12.7908 0.697677H7.20933C2.55815 0.697677 0.697677 2.55815 0.697677 7.20933V12.7908C0.697677 17.4419 2.55815 19.3024 7.20933 19.3024Z" stroke="#92928A" stroke-width="1.375" stroke-linecap="round" stroke-linejoin="round"/>
<path d="M10.0002 13.256C11.7984 13.256 13.256 11.7984 13.256 10.0002C13.256 8.20206 11.7984 6.74438 10.0002 6.74438C8.20206 6.74438 6.74438 8.20206 6.74438 10.0002C6.74438 11.7984 8.20206 13.256 10.0002 13.256Z" stroke="#92928A" stroke-width="1.375" stroke-linecap="round" stroke-linejoin="round"/>
<path d="M15.243 5.34886H15.2537" stroke="#92928A" stroke-width="1.83333" stroke-linecap="round" stroke-linejoin="round"/>
</svg>
