<svg width="36" height="36" viewBox="0 0 36 36" fill="none" xmlns="http://www.w3.org/2000/svg">
<path d="M4.51489 16.8301V23.5651C4.51489 30.3001 7.21489 33.0001 13.9499 33.0001H22.0349C28.7699 33.0001 31.4699 30.3001 31.4699 23.5651V16.8301" stroke="#3F3F32" stroke-width="1.5" stroke-linecap="round" stroke-linejoin="round"/>
<path d="M18 18C20.745 18 22.77 15.765 22.5 13.02L21.51 3H14.505L13.5 13.02C13.23 15.765 15.255 18 18 18Z" stroke="#3F3F32" stroke-width="1.5" stroke-linecap="round" stroke-linejoin="round"/>
<path d="M27.4649 18C30.4949 18 32.715 15.54 32.415 12.525L31.9949 8.4C31.4549 4.5 29.955 3 26.025 3H21.45L22.5 13.515C22.755 15.99 24.9899 18 27.4649 18Z" stroke="#3F3F32" stroke-width="1.5" stroke-linecap="round" stroke-linejoin="round"/>
<path d="M8.46007 18C10.9351 18 13.1701 15.99 13.4101 13.515L13.7401 10.2L14.4601 3H9.88507C5.95507 3 4.45507 4.5 3.91507 8.4L3.51007 12.525C3.21007 15.54 5.43007 18 8.46007 18Z" stroke="#3F3F32" stroke-width="1.5" stroke-linecap="round" stroke-linejoin="round"/>
<path d="M18 25.5C15.495 25.5 14.25 26.745 14.25 29.25V33H21.75V29.25C21.75 26.745 20.505 25.5 18 25.5Z" stroke="#3F3F32" stroke-width="1.5" stroke-linecap="round" stroke-linejoin="round"/>
</svg>
