<svg width="136" height="24" viewBox="0 0 136 24" fill="none" xmlns="http://www.w3.org/2000/svg">
<path d="M122.942 3.84365L122.941 3.84506L121.182 7.36269C120.995 7.74371 120.681 8.06942 120.358 8.30815C120.033 8.54787 119.63 8.75005 119.213 8.81944L119.213 8.81951L116.023 9.34944C116.023 9.34946 116.023 9.34948 116.023 9.34951C115.133 9.49798 114.84 9.84889 114.773 10.0592C114.706 10.2678 114.737 10.7207 115.379 11.3575L115.38 11.3593L117.86 13.8393C118.183 14.1617 118.398 14.5928 118.517 15.0082C118.636 15.424 118.681 15.9021 118.582 16.3437L118.582 16.3437L118.581 16.3486L117.871 19.4181C117.606 20.5698 117.873 20.9844 118.006 21.0811C118.14 21.1788 118.619 21.3061 119.639 20.7039L122.628 18.9344C122.628 18.9344 122.628 18.9343 122.628 18.9343C123.042 18.6891 123.54 18.5896 123.996 18.5896C124.453 18.5896 124.951 18.6894 125.367 18.9314L125.367 18.9314L125.372 18.9343L128.362 20.7043L128.363 20.7047C129.374 21.3046 129.854 21.1771 129.991 21.0775C130.126 20.9784 130.394 20.5614 130.129 19.4187L130.129 19.4186L129.419 16.3486L129.419 16.3486L129.418 16.3437C129.319 15.9021 129.364 15.424 129.483 15.0082C129.602 14.5928 129.817 14.1617 130.14 13.8393L132.62 11.3593C133.257 10.7223 133.29 10.2682 133.223 10.0578C133.156 9.84815 132.867 9.49786 131.977 9.34951C131.977 9.34948 131.977 9.34946 131.977 9.34944L128.787 8.81951L128.787 8.81951L128.785 8.81906C128.372 8.74908 127.972 8.54607 127.65 8.30711C127.328 8.06884 127.015 7.74343 126.828 7.3626L125.07 3.84646C125.07 3.84626 125.07 3.84607 125.07 3.84587C124.644 2.99921 124.214 2.82715 124.001 2.82715C123.79 2.82715 123.362 2.99763 122.942 3.84365Z" fill="#E8E8E8" stroke="#E8E8E8" stroke-width="1.5" stroke-linecap="round" stroke-linejoin="round"/>
<g clip-path="url(#clip0_13_2292)">
<path d="M125.332 2.74993L125.331 2.75142L122.986 6.53969C122.74 6.94407 122.337 7.2787 121.934 7.51861C121.523 7.7637 121.034 7.95684 120.554 8.02149L120.553 8.02153L116.3 8.59226C114.998 8.76759 114.537 9.2006 114.442 9.44013C114.379 9.59886 114.36 10.0664 115.269 10.7962L115.271 10.7978L118.578 13.4686C118.983 13.7956 119.272 14.2505 119.435 14.7115C119.597 15.1682 119.661 15.704 119.523 16.2018L119.523 16.2018L119.521 16.2077L118.575 19.5132C118.575 19.5134 118.575 19.5136 118.574 19.5138C118.574 19.5139 118.574 19.5139 118.574 19.5139C118.236 20.7004 118.55 21.1395 118.799 21.2861C119.157 21.497 119.994 21.5489 121.371 20.8921L125.356 18.9863C125.846 18.752 126.441 18.6543 126.995 18.6543C127.55 18.6543 128.146 18.7522 128.639 18.984L128.639 18.984L128.644 18.9862L132.63 20.8923L132.631 20.8926C133.998 21.5479 134.835 21.4948 135.196 21.2822C135.449 21.1329 135.763 20.6909 135.426 19.514L135.426 19.5139L134.479 16.2077L134.479 16.2077L134.477 16.2018C134.339 15.704 134.403 15.1682 134.565 14.7115C134.728 14.2505 135.017 13.7956 135.422 13.4686L138.729 10.7978C139.632 10.0682 139.616 9.59951 139.553 9.43856C139.458 9.20018 139.002 8.7676 137.7 8.5923C137.7 8.5923 137.7 8.5923 137.7 8.59229C137.7 8.59228 137.7 8.59227 137.7 8.59226L133.447 8.02153L133.445 8.02124C132.971 7.95618 132.485 7.76239 132.076 7.51779C131.676 7.27821 131.274 6.94377 131.028 6.53964L128.683 2.75291C128.683 2.7526 128.683 2.75229 128.683 2.75198C128.135 1.87181 127.506 1.56396 127.002 1.56396C126.499 1.56396 125.873 1.8709 125.332 2.74993Z" fill="#FABF35" stroke="#FABF35" stroke-width="1.5" stroke-linecap="round" stroke-linejoin="round"/>
</g>
<path d="M94.9415 3.8439L94.9408 3.8453L93.182 7.36294C92.9945 7.74396 92.6813 8.06966 92.3578 8.30839C92.0329 8.54812 91.6296 8.7503 91.2133 8.81969L91.2129 8.81975L88.0233 9.34969C88.0231 9.34971 88.023 9.34973 88.0229 9.34975C87.1325 9.49823 86.8403 9.84913 86.7727 10.0594C86.7057 10.268 86.7373 10.7209 87.3785 11.3578L87.3803 11.3596L89.8603 13.8396C90.1827 14.162 90.3983 14.5931 90.5173 15.0085C90.6363 15.4242 90.6808 15.9024 90.5818 16.3439L90.5818 16.3439L90.5807 16.3489L89.8708 19.4183C89.6054 20.57 89.8728 20.9846 90.0055 21.0813C90.1395 21.179 90.619 21.3064 91.6385 20.7041L94.6276 18.9347C94.6277 18.9346 94.6278 18.9346 94.6279 18.9345C95.0418 18.6893 95.5401 18.5899 95.9962 18.5899C96.4531 18.5899 96.9512 18.6896 97.3671 18.9316L97.3671 18.9316L97.372 18.9345L100.362 20.7045L100.363 20.7049C101.374 21.3048 101.854 21.1773 101.99 21.0778C102.126 20.9787 102.394 20.5617 102.129 19.419L102.129 19.4189L101.419 16.3489L101.419 16.3489L101.418 16.3439C101.319 15.9024 101.364 15.4242 101.483 15.0085C101.602 14.5931 101.817 14.162 102.14 13.8396L104.62 11.3596C105.257 10.7226 105.29 10.2684 105.223 10.058C105.156 9.84839 104.867 9.4981 103.977 9.34975C103.977 9.34973 103.977 9.34971 103.977 9.34969L100.787 8.81975L100.787 8.81975L100.784 8.81931C100.372 8.74933 99.9718 8.54632 99.6495 8.30735C99.3282 8.06908 99.0153 7.74368 98.8279 7.36285L97.0698 3.84671C97.0698 3.84651 97.0697 3.84631 97.0696 3.84611C96.6438 2.99946 96.2138 2.82739 96.0012 2.82739C95.7899 2.82739 95.3623 2.99788 94.9415 3.8439Z" fill="#FABF35" stroke="#FABF35" stroke-width="1.5" stroke-linecap="round" stroke-linejoin="round"/>
<path d="M66.9415 3.8439L66.9408 3.8453L65.182 7.36294C64.9945 7.74396 64.6813 8.06966 64.3578 8.30839C64.0329 8.54812 63.6296 8.7503 63.2133 8.81969L63.2129 8.81975L60.0233 9.34969C60.0231 9.34971 60.023 9.34973 60.0229 9.34975C59.1325 9.49823 58.8403 9.84913 58.7727 10.0594C58.7057 10.268 58.7373 10.7209 59.3785 11.3578L59.3803 11.3596L61.8603 13.8396C62.1827 14.162 62.3983 14.5931 62.5173 15.0085C62.6363 15.4242 62.6808 15.9024 62.5818 16.3439L62.5818 16.3439L62.5807 16.3489L61.8708 19.4183C61.6054 20.57 61.8728 20.9846 62.0055 21.0813C62.1395 21.179 62.619 21.3064 63.6385 20.7041L66.6276 18.9347C66.6277 18.9346 66.6278 18.9346 66.6279 18.9345C67.0418 18.6893 67.5401 18.5899 67.9962 18.5899C68.4531 18.5899 68.9512 18.6896 69.3671 18.9316L69.3671 18.9316L69.372 18.9345L72.362 20.7045L72.3627 20.7049C73.3736 21.3048 73.854 21.1773 73.9904 21.0778C74.1262 20.9787 74.3937 20.5617 74.1293 19.419L74.1293 19.4189L73.4193 16.3489L73.4192 16.3489L73.4181 16.3439C73.3192 15.9024 73.3637 15.4242 73.4827 15.0085C73.6016 14.5931 73.8172 14.162 74.1396 13.8396L76.6196 11.3596C77.2566 10.7226 77.2902 10.2684 77.223 10.058C77.1561 9.84839 76.8666 9.4981 75.977 9.34975C75.9769 9.34973 75.9768 9.34971 75.9767 9.34969L72.787 8.81975L72.787 8.81975L72.7844 8.81931C72.3723 8.74933 71.9718 8.54632 71.6495 8.30735C71.3282 8.06908 71.0153 7.74368 70.8279 7.36285L69.0698 3.84671C69.0698 3.84651 69.0697 3.84631 69.0696 3.84611C68.6438 2.99946 68.2138 2.82739 68.0012 2.82739C67.7899 2.82739 67.3623 2.99788 66.9415 3.8439Z" fill="#FABF35" stroke="#FABF35" stroke-width="1.5" stroke-linecap="round" stroke-linejoin="round"/>
<path d="M38.9415 3.8439L38.9408 3.8453L37.182 7.36291C36.9945 7.74394 36.6813 8.06965 36.3578 8.30839C36.0329 8.54812 35.6296 8.7503 35.2133 8.81969L35.2129 8.81975L32.0233 9.34969C32.0231 9.34971 32.023 9.34973 32.0229 9.34975C31.1325 9.49823 30.8403 9.84913 30.7727 10.0594C30.7057 10.268 30.7373 10.7209 31.3785 11.3578L31.3803 11.3596L33.8603 13.8396C34.1827 14.162 34.3983 14.5931 34.5173 15.0085C34.6363 15.4243 34.6808 15.9024 34.5818 16.3439L34.5818 16.3439L34.5807 16.3489L33.8708 19.4183C33.6054 20.57 33.8728 20.9846 34.0055 21.0813C34.1395 21.179 34.6188 21.3063 35.6379 20.7045C35.6381 20.7044 35.6383 20.7043 35.6385 20.7041L38.6276 18.9347C38.6277 18.9346 38.6278 18.9346 38.6279 18.9345C39.0418 18.6893 39.5401 18.5899 39.9962 18.5899C40.4531 18.5899 40.9512 18.6896 41.3671 18.9316L41.3671 18.9316L41.372 18.9345L44.362 20.7045L44.3627 20.7049C45.3736 21.3048 45.854 21.1773 45.9904 21.0778C46.1262 20.9787 46.3937 20.5617 46.1293 19.419L46.1293 19.4189L45.4193 16.3489L45.4192 16.3489L45.4181 16.3439C45.3192 15.9024 45.3637 15.4243 45.4827 15.0085C45.6016 14.5931 45.8172 14.162 46.1396 13.8396L48.6196 11.3596C49.2566 10.7226 49.2902 10.2684 49.223 10.058C49.1561 9.84839 48.8666 9.4981 47.977 9.34975C47.9769 9.34973 47.9768 9.34971 47.9767 9.34969L44.787 8.81975L44.787 8.81976L44.7844 8.81931C44.3723 8.74933 43.9718 8.54632 43.6495 8.30735C43.3282 8.06908 43.0153 7.74368 42.8279 7.36285L41.0698 3.84671C41.0698 3.84651 41.0697 3.84632 41.0696 3.84613C40.6439 2.99946 40.2138 2.82739 40.0012 2.82739C39.7899 2.82739 39.3623 2.99788 38.9415 3.8439Z" fill="#FABF35" stroke="#FABF35" stroke-width="1.5" stroke-linecap="round" stroke-linejoin="round"/>
<path d="M10.9415 3.8439L10.9408 3.8453L9.18198 7.36291C8.99452 7.74394 8.68132 8.06965 8.35777 8.30839C8.03287 8.54812 7.62962 8.7503 7.21327 8.81969L7.21289 8.81975L4.02327 9.34969C4.02314 9.34971 4.02302 9.34973 4.02289 9.34975C3.13253 9.49823 2.84032 9.84913 2.77274 10.0594C2.70568 10.268 2.73729 10.7209 3.37849 11.3578L3.3803 11.3596L5.8603 13.8396C6.18269 14.162 6.39834 14.5931 6.51726 15.0085C6.63627 15.4243 6.68078 15.9024 6.58181 16.3439L6.58183 16.3439L6.58068 16.3489L5.87081 19.4183C5.60539 20.57 5.87284 20.9846 6.00554 21.0813C6.1395 21.179 6.61879 21.3063 7.63791 20.7045C7.63811 20.7044 7.63832 20.7043 7.63852 20.7041L10.6276 18.9347C10.6277 18.9346 10.6278 18.9346 10.6279 18.9345C11.0418 18.6893 11.5401 18.5899 11.9962 18.5899C12.4531 18.5899 12.9512 18.6896 13.3671 18.9316L13.3671 18.9316L13.372 18.9345L16.362 20.7045L16.3627 20.7049C17.3736 21.3048 17.854 21.1773 17.9904 21.0778C18.1262 20.9787 18.3937 20.5617 18.1293 19.419L18.1293 19.4189L17.4193 16.3489L17.4192 16.3489L17.4181 16.3439C17.3192 15.9024 17.3637 15.4243 17.4827 15.0085C17.6016 14.5931 17.8172 14.162 18.1396 13.8396L20.6196 11.3596C21.2566 10.7226 21.2902 10.2684 21.223 10.058C21.1561 9.84839 20.8666 9.4981 19.977 9.34975C19.9769 9.34973 19.9768 9.34971 19.9767 9.34969L16.787 8.81975L16.787 8.81976L16.7844 8.81931C16.3723 8.74933 15.9718 8.54632 15.6495 8.30735C15.3282 8.06908 15.0153 7.74368 14.8279 7.36285L13.0698 3.84671C13.0698 3.84651 13.0697 3.84632 13.0696 3.84613C12.6439 2.99946 12.2138 2.82739 12.0012 2.82739C11.7899 2.82739 11.3623 2.99788 10.9415 3.8439Z" fill="#FABF35" stroke="#FABF35" stroke-width="1.5" stroke-linecap="round" stroke-linejoin="round"/>
<defs>
<clipPath id="clip0_13_2292">
<rect width="10" height="21" fill="white" transform="matrix(-1 0 0 1 124 1)"/>
</clipPath>
</defs>
</svg>
