<svg width="32" height="32" viewBox="0 0 32 32" fill="none" xmlns="http://www.w3.org/2000/svg">
<path d="M10.6667 19.4286C10.6667 22.3543 13.0743 24.7619 16 24.7619C18.9257 24.7619 21.3333 22.3543 21.3333 19.4286" stroke="#3F3F32" stroke-width="1.5" stroke-miterlimit="10" stroke-linecap="round" stroke-linejoin="round"/>
<path d="M11.139 0.761905L5.62277 6.29333" stroke="#3F3F32" stroke-width="1.5" stroke-miterlimit="10" stroke-linecap="round" stroke-linejoin="round"/>
<path d="M20.8609 0.761905L26.3771 6.29333" stroke="#3F3F32" stroke-width="1.5" stroke-miterlimit="10" stroke-linecap="round" stroke-linejoin="round"/>
<path d="M0.761905 9.67609C0.761905 6.85704 2.27048 6.62847 4.14476 6.62847H27.8552C29.7295 6.62847 31.2381 6.85704 31.2381 9.67609C31.2381 12.9523 29.7295 12.7237 27.8552 12.7237H4.14476C2.27048 12.7237 0.761905 12.9523 0.761905 9.67609Z" stroke="#3F3F32" stroke-width="1.5"/>
<path d="M3.04762 12.9524L5.19619 26.1181C5.68381 29.0743 6.85714 31.2381 11.2152 31.2381H20.4038C25.1429 31.2381 25.8438 29.1657 26.3924 26.301L28.9524 12.9524" stroke="#3F3F32" stroke-width="1.5" stroke-linecap="round"/>
</svg>
